<?xml version="1.0" encoding="UTF-8" standalone="no"?>
<!-- Created with Inkscape (http://www.inkscape.org/) -->

<svg
   xmlns:dc="http://purl.org/dc/elements/1.1/"
   xmlns:cc="http://creativecommons.org/ns#"
   xmlns:rdf="http://www.w3.org/1999/02/22-rdf-syntax-ns#"
   xmlns:svg="http://www.w3.org/2000/svg"
   xmlns="http://www.w3.org/2000/svg"
   xmlns:sodipodi="http://sodipodi.sourceforge.net/DTD/sodipodi-0.dtd"
   xmlns:inkscape="http://www.inkscape.org/namespaces/inkscape"
   width="407.23419pt"
   height="293.8269pt"
   viewBox="0 0 143.66317 103.6556"
   id="svg2"
   version="1.1"
   inkscape:version="0.91+devel r13869"
   sodipodi:docname="boltgun.svg">
  <defs
     id="defs4">
    <inkscape:path-effect
       effect="powerstroke"
       id="path-effect4584"
       is_visible="true"
       offset_points="648,0.5"
       sort_points="true"
       interpolator_type="CubicBezierJohan"
       interpolator_beta="0.2"
       start_linecap_type="zerowidth"
       linejoin_type="extrp_arc"
       miter_limit="4"
       end_linecap_type="zerowidth"
       cusp_linecap_type="round" />
    <inkscape:path-effect
       effect="powerstroke"
       id="path-effect4580"
       is_visible="true"
       offset_points="31,0.5"
       sort_points="true"
       interpolator_type="CubicBezierJohan"
       interpolator_beta="0.2"
       start_linecap_type="zerowidth"
       linejoin_type="extrp_arc"
       miter_limit="4"
       end_linecap_type="zerowidth"
       cusp_linecap_type="round" />
    <inkscape:path-effect
       effect="powerstroke"
       id="path-effect4570"
       is_visible="true"
       offset_points="484,0.5"
       sort_points="true"
       interpolator_type="CubicBezierJohan"
       interpolator_beta="0.2"
       start_linecap_type="zerowidth"
       linejoin_type="extrp_arc"
       miter_limit="4"
       end_linecap_type="zerowidth"
       cusp_linecap_type="round" />
  </defs>
  <sodipodi:namedview
     id="base"
     pagecolor="#ffffff"
     bordercolor="#666666"
     borderopacity="1.0"
     inkscape:pageopacity="0.0"
     inkscape:pageshadow="2"
     inkscape:zoom="0.62535857"
     inkscape:cx="195.33722"
     inkscape:cy="214.94011"
     inkscape:document-units="mm"
     inkscape:current-layer="layer1"
     showgrid="false"
     inkscape:object-paths="true"
     inkscape:snap-global="true"
     showguides="false"
     fit-margin-top="8"
     fit-margin-left="8"
     fit-margin-right="8"
     fit-margin-bottom="8"
     units="pt" />
  <metadata
     id="metadata7">
    <rdf:RDF>
      <cc:Work
         rdf:about="">
        <dc:format>image/svg+xml</dc:format>
        <dc:type
           rdf:resource="http://purl.org/dc/dcmitype/StillImage" />
        <dc:title></dc:title>
      </cc:Work>
    </rdf:RDF>
  </metadata>
  <g
     inkscape:label="Layer 1"
     inkscape:groupmode="layer"
     id="layer1"
     transform="translate(-32.893474,-97.404872)">
    <path
       style="fill:#707070;fill-opacity:1;fill-rule:evenodd;stroke:#000000;stroke-width:0.70555556;stroke-linecap:butt;stroke-linejoin:miter;stroke-miterlimit:4;stroke-dasharray:none;stroke-opacity:1"
       d="m 156.53059,100.5804 0,13.45149 -22.66738,0 0,-6.0043 c 2.93233,0 17.32835,1.91633 17.32835,-7.4392 z"
       id="path4222"
       inkscape:connector-curvature="0"
       sodipodi:nodetypes="cccccc" />
    <path
       style="fill:#d60119;fill-opacity:1;fill-rule:evenodd;stroke:#000000;stroke-width:0.70555556;stroke-linecap:butt;stroke-linejoin:miter;stroke-miterlimit:4;stroke-dasharray:none;stroke-opacity:1"
       d="m 156.53059,114.03189 0,20.15395 -43.89187,0 0,6.14393 -32.395266,0 0,-6.05084 c 0,-3.39778 -7.586822,-6.60938 -10.053703,0 l -13.963478,0 0,-20.2005 z"
       id="path4224"
       inkscape:connector-curvature="0"
       sodipodi:nodetypes="cccccccccc" />
    <path
       style="fill:#707070;fill-opacity:1;fill-rule:evenodd;stroke:#000000;stroke-width:0.70555556;stroke-linecap:butt;stroke-linejoin:miter;stroke-miterlimit:4;stroke-dasharray:none;stroke-opacity:1"
       d="m 59.437957,114.07694 5.212948,-5.63044 20.060861,0 2.839191,5.61739 z"
       id="path4226"
       inkscape:connector-curvature="0" />
    <path
       style="fill:#313131;fill-opacity:1;fill-rule:evenodd;stroke:#000000;stroke-width:0.70555556;stroke-linecap:butt;stroke-linejoin:miter;stroke-miterlimit:4;stroke-dasharray:none;stroke-opacity:1"
       d="m 85.838706,110.67617 48.024504,0 0,3.35572 -46.312255,0.032 z"
       id="path4228"
       inkscape:connector-curvature="0" />
    <path
       style="fill:#535353;fill-opacity:1;fill-rule:evenodd;stroke:#000000;stroke-width:0.70555556;stroke-linecap:butt;stroke-linejoin:miter;stroke-miterlimit:4;stroke-dasharray:none;stroke-opacity:1"
       d="m 156.53059,114.96243 9.34707,0 0,7.99767 -9.34707,0 z"
       id="path4249"
       inkscape:connector-curvature="0" />
    <rect
       style="font-variant-ligatures:none;font-variant-position:normal;font-variant-caps:normal;font-variant-numeric:normal;font-variant-alternates:normal;font-feature-settings:normal;opacity:1;fill:#313131;fill-opacity:1;stroke:#000000;stroke-width:0.70555556;stroke-linecap:round;stroke-linejoin:round;stroke-miterlimit:4;stroke-dasharray:none;stroke-dashoffset:0;stroke-opacity:1"
       id="rect4384"
       width="31.64613"
       height="10.98823"
       x="118.95966"
       y="144.63969" />
    <path
       style="fill:#958474;fill-opacity:1;fill-rule:evenodd;stroke:#000000;stroke-width:2.66666675;stroke-linecap:butt;stroke-linejoin:miter;stroke-miterlimit:4;stroke-dasharray:none;stroke-opacity:1"
       d="m 425.7207,507.1582 -0.29687,89.17969 24.1875,0 0,-38.63672 a 5.6997373,5.6997373 0 0 1 -0.0332,-0.58203 5.6997373,5.6997373 0 0 1 0.0332,-0.61914 l 0,-0.25586 0.0391,0 a 5.6997373,5.6997373 0 0 1 5.625,-4.82422 l 0,0.002 a 5.6997373,5.6997373 0 0 1 5.62891,4.82421 l 0.004,0 0,0.0332 a 5.6997373,5.6997373 0 0 1 0.0664,0.83984 5.6997373,5.6997373 0 0 1 -0.0664,0.82617 l 0,38.39258 15.78125,0 0,-38.63672 a 5.6997374,5.6997374 0 0 1 -0.0352,-0.58203 5.6997374,5.6997374 0 0 1 0.0352,-0.61914 l 0,-0.25586 0.0391,0 a 5.6997374,5.6997374 0 0 1 5.625,-4.82422 l 0,0.002 a 5.6997374,5.6997374 0 0 1 5.6289,4.82421 l 0.004,0 0,0.0332 a 5.6997374,5.6997374 0 0 1 0.0664,0.83984 5.6997374,5.6997374 0 0 1 -0.0664,0.82617 l 0,38.39258 15.78125,0 0,-38.63672 a 5.6997375,5.6997375 0 0 1 -0.0352,-0.58203 5.6997375,5.6997375 0 0 1 0.0352,-0.61914 l 0,-0.25586 0.0371,0 a 5.6997375,5.6997375 0 0 1 5.625,-4.82422 l 0.002,0.002 a 5.6997375,5.6997375 0 0 1 5.62891,4.82421 l 0.002,0 0,0.0332 a 5.6997375,5.6997375 0 0 1 0.0684,0.83984 5.6997375,5.6997375 0 0 1 -0.0684,0.82617 l 0,38.39258 15.78125,0 0,-38.63672 a 5.6997376,5.6997376 0 0 1 -0.0332,-0.58203 5.6997376,5.6997376 0 0 1 0.0332,-0.61914 l 0,-0.25586 0.0391,0 a 5.6997376,5.6997376 0 0 1 5.625,-4.82422 l 0,0.002 a 5.6997376,5.6997376 0 0 1 5.62891,4.82421 l 0.004,0 0,0.0332 a 5.6997376,5.6997376 0 0 1 0.0664,0.83984 5.6997376,5.6997376 0 0 1 -0.0664,0.82617 l 0,38.39258 15.78126,0 0,-38.63672 a 5.6997377,5.6997377 0 0 1 -0.0332,-0.58203 5.6997377,5.6997377 0 0 1 0.0332,-0.61914 l 0,-0.25586 0.0391,0 a 5.6997377,5.6997377 0 0 1 5.625,-4.82422 l 0,0.002 a 5.6997377,5.6997377 0 0 1 5.6289,4.82421 l 0.004,0 0,0.0332 a 5.6997377,5.6997377 0 0 1 0.0664,0.83984 5.6997377,5.6997377 0 0 1 -0.0664,0.82617 l 0,38.39258 22.39258,0 0,-89.17969 -165.89063,0 z"
       id="path4251"
       inkscape:connector-curvature="0"
       transform="scale(0.26458333)" />
    <path
       style="fill:#535353;fill-opacity:1;fill-rule:evenodd;stroke:#000000;stroke-width:0.70555556;stroke-linecap:butt;stroke-linejoin:miter;stroke-miterlimit:4;stroke-dasharray:none;stroke-opacity:1"
       d="m 156.53059,147.51263 12.17752,0 0,5.39761 -12.17752,0 z"
       id="path4253"
       inkscape:connector-curvature="0" />
    <path
       style="fill:#707070;fill-opacity:1;fill-rule:evenodd;stroke:#000000;stroke-width:0.70555556;stroke-linecap:butt;stroke-linejoin:miter;stroke-miterlimit:4;stroke-dasharray:none;stroke-opacity:1"
       d="m 156.53059,127.04122 16.85106,0 0,18.43085 -16.85106,0 z"
       id="path4255"
       inkscape:connector-curvature="0" />
    <circle
       style="font-variant-ligatures:none;font-variant-position:normal;font-variant-caps:normal;font-variant-numeric:normal;font-variant-alternates:normal;font-feature-settings:normal;opacity:1;fill:#313131;fill-opacity:1;stroke:#000000;stroke-width:0.70555556;stroke-linecap:round;stroke-linejoin:round;stroke-miterlimit:4;stroke-dasharray:none;stroke-dashoffset:0;stroke-opacity:1"
       id="path4257"
       cx="164.95612"
       cy="136.25664"
       r="4.3752232" />
    <circle
       style="font-variant-ligatures:none;font-variant-position:normal;font-variant-caps:normal;font-variant-numeric:normal;font-variant-alternates:normal;font-feature-settings:normal;opacity:1;fill:#535353;fill-opacity:1;stroke:#000000;stroke-width:0.70555556;stroke-linecap:round;stroke-linejoin:round;stroke-miterlimit:4;stroke-dasharray:none;stroke-dashoffset:0;stroke-opacity:1"
       id="path4259"
       cx="116.18456"
       cy="137.97812"
       r="1.5080556" />
    <circle
       style="font-variant-ligatures:none;font-variant-position:normal;font-variant-caps:normal;font-variant-numeric:normal;font-variant-alternates:normal;font-feature-settings:normal;opacity:1;fill:#535353;fill-opacity:1;stroke:#000000;stroke-width:0.70555556;stroke-linecap:round;stroke-linejoin:round;stroke-miterlimit:4;stroke-dasharray:none;stroke-dashoffset:0;stroke-opacity:1"
       id="path4259-1"
       cx="152.90587"
       cy="137.97812"
       r="1.5080557" />
    <circle
       style="font-variant-ligatures:none;font-variant-position:normal;font-variant-caps:normal;font-variant-numeric:normal;font-variant-alternates:normal;font-feature-settings:normal;opacity:1;fill:#535353;fill-opacity:1;stroke:#000000;stroke-width:0.70555556;stroke-linecap:round;stroke-linejoin:round;stroke-miterlimit:4;stroke-dasharray:none;stroke-dashoffset:0;stroke-opacity:1"
       id="path4259-1-5"
       cx="152.90587"
       cy="117.65662"
       r="1.5080557" />
    <circle
       style="font-variant-ligatures:none;font-variant-position:normal;font-variant-caps:normal;font-variant-numeric:normal;font-variant-alternates:normal;font-feature-settings:normal;opacity:1;fill:#535353;fill-opacity:1;stroke:#000000;stroke-width:0.70555556;stroke-linecap:round;stroke-linejoin:round;stroke-miterlimit:4;stroke-dasharray:none;stroke-dashoffset:0;stroke-opacity:1"
       id="path4259-1-5-1"
       cx="152.90587"
       cy="130.56111"
       r="1.5080557" />
    <circle
       style="font-variant-ligatures:none;font-variant-position:normal;font-variant-caps:normal;font-variant-numeric:normal;font-variant-alternates:normal;font-feature-settings:normal;opacity:1;fill:#535353;fill-opacity:1;stroke:#000000;stroke-width:0.70555556;stroke-linecap:round;stroke-linejoin:round;stroke-miterlimit:4;stroke-dasharray:none;stroke-dashoffset:0;stroke-opacity:1"
       id="path4259-1-5-8"
       cx="108.93511"
       cy="136.70505"
       r="1.5080557" />
    <circle
       style="font-variant-ligatures:none;font-variant-position:normal;font-variant-caps:normal;font-variant-numeric:normal;font-variant-alternates:normal;font-feature-settings:normal;opacity:1;fill:#535353;fill-opacity:1;stroke:#000000;stroke-width:0.70555556;stroke-linecap:round;stroke-linejoin:round;stroke-miterlimit:4;stroke-dasharray:none;stroke-dashoffset:0;stroke-opacity:1"
       id="path4259-1-5-8-0"
       cx="59.850994"
       cy="117.65662"
       r="1.5080557" />
    <circle
       style="font-variant-ligatures:none;font-variant-position:normal;font-variant-caps:normal;font-variant-numeric:normal;font-variant-alternates:normal;font-feature-settings:normal;opacity:1;fill:#535353;fill-opacity:1;stroke:#000000;stroke-width:0.70555556;stroke-linecap:round;stroke-linejoin:round;stroke-miterlimit:4;stroke-dasharray:none;stroke-dashoffset:0;stroke-opacity:1"
       id="path4259-1-5-8-1"
       cx="59.850994"
       cy="130.57024"
       r="1.5080557" />
    <rect
       style="font-variant-ligatures:none;font-variant-position:normal;font-variant-caps:normal;font-variant-numeric:normal;font-variant-alternates:normal;font-feature-settings:normal;opacity:1;fill:#707070;fill-opacity:1;stroke:#000000;stroke-width:0.70555556;stroke-linecap:round;stroke-linejoin:round;stroke-miterlimit:4;stroke-dasharray:none;stroke-dashoffset:0;stroke-opacity:1"
       id="rect4407"
       width="3.1731794"
       height="12.269627"
       x="101.11865"
       y="115.91722" />
    <rect
       style="font-variant-ligatures:none;font-variant-position:normal;font-variant-caps:normal;font-variant-numeric:normal;font-variant-alternates:normal;font-feature-settings:normal;opacity:1;fill:#313131;fill-opacity:1;stroke:#000000;stroke-width:0.70555556;stroke-linecap:round;stroke-linejoin:round;stroke-miterlimit:4;stroke-dasharray:none;stroke-dashoffset:0;stroke-opacity:1"
       id="rect4409"
       width="18.40444"
       height="6.9281082"
       x="82.714211"
       y="117.97979" />
    <path
       style="fill:#707070;fill-opacity:1;fill-rule:evenodd;stroke:#000000;stroke-width:0.70555556;stroke-linecap:butt;stroke-linejoin:miter;stroke-miterlimit:4;stroke-dasharray:none;stroke-opacity:1"
       d="m 104.29183,115.91722 3.17318,0 -1.05773,11.2119 -2.11545,0 z"
       id="path4411"
       inkscape:connector-curvature="0" />
    <path
       style="fill:#dad9c9;fill-opacity:1;fill-rule:evenodd;stroke:#000000;stroke-width:2.66666675;stroke-linecap:butt;stroke-linejoin:miter;stroke-miterlimit:4;stroke-dasharray:none;stroke-opacity:1"
       d="m 536.0918,468.29492 -5.58594,4.27539 -0.21094,4.11914 -12.25195,20.48633 c 1.52925,1.36981 3.97441,2.88233 7.05664,2.30078 l 17.18945,-20.98828 0.79883,-7.79492 -6.99609,-2.39844 z"
       id="path4413"
       inkscape:connector-curvature="0"
       transform="scale(0.26458333)" />
    <path
       style="fill:#dad9c9;fill-opacity:1;fill-rule:evenodd;stroke:#000000;stroke-width:2.66666675;stroke-linecap:butt;stroke-linejoin:miter;stroke-miterlimit:4;stroke-dasharray:none;stroke-opacity:1"
       d="m 530.69531,468.89453 -13.59179,0.40039 -1.72266,2.20117 2.92187,1.9961 -14.60937,19.89453 c 2.97725,2.69309 7.06158,6.28037 8.01367,6.49023 1.50546,0.33192 5.19727,-0.79883 5.19727,-0.79883 l 13.39062,-22.38867 0.40039,-7.79492 z"
       id="path4415"
       inkscape:connector-curvature="0"
       transform="scale(0.26458333)" />
    <path
       style="fill:#dad9c9;fill-opacity:1;fill-rule:evenodd;stroke:#000000;stroke-width:2.66666675;stroke-linecap:butt;stroke-linejoin:miter;stroke-miterlimit:4;stroke-dasharray:none;stroke-opacity:1"
       d="m 510.10742,467.89453 -2.49609,2.58789 3.0957,3.00977 -21.79687,18.51953 c 1.53265,2.4273 5.14985,7.43839 9.5039,8.56445 l 19.88867,-27.08398 -8.19531,-5.59766 z"
       id="path4417"
       inkscape:connector-curvature="0"
       transform="scale(0.26458333)" />
    <path
       style="fill:#dad9c9;fill-opacity:1;fill-rule:evenodd;stroke:#000000;stroke-width:2.66666675;stroke-linecap:butt;stroke-linejoin:miter;stroke-miterlimit:4;stroke-dasharray:none;stroke-opacity:1"
       d="m 503.51172,466.49609 -1.88477,0.82618 0.68555,5.57031 -27.20703,14.89453 c -1.00626,5.35595 -3.57258,10.72551 5.01953,11.68945 l 30.58203,-25.98437 -7.19531,-6.9961 z"
       id="path4419"
       inkscape:connector-curvature="0"
       transform="scale(0.26458333)" />
    <path
       style="fill:#dad9c9;fill-opacity:1;fill-rule:evenodd;stroke:#000000;stroke-width:2.66666675;stroke-linecap:butt;stroke-linejoin:miter;stroke-miterlimit:4;stroke-dasharray:none;stroke-opacity:1"
       d="m 500.71289,459.90039 -2.80078,1.08008 -2.99609,6.31445 -34.56055,14.76367 c 0.4332,6.04579 0.5211,8.33961 6.17773,10.42188 l 35.7793,-19.58789 -1.59961,-12.99219 z"
       id="path4421"
       inkscape:connector-curvature="0"
       transform="scale(0.26458333)" />
    <path
       style="fill:#dad9c9;fill-opacity:1;fill-rule:evenodd;stroke:#000000;stroke-width:2.66666675;stroke-linecap:butt;stroke-linejoin:miter;stroke-miterlimit:4;stroke-dasharray:none;stroke-opacity:1"
       d="m 502.3125,451.70508 -3.12109,0.98047 -2.87696,3.8164 -49.32226,16.3125 c -0.63157,9.12685 4.96274,9.44236 6.74804,12.07032 l 41.17579,-17.58985 7.39648,-15.58984 z"
       id="path4423"
       inkscape:connector-curvature="0"
       transform="scale(0.26458333)" />
    <path
       style="fill:#dad9c9;fill-opacity:1;fill-rule:evenodd;stroke:#000000;stroke-width:2.66666675;stroke-linecap:butt;stroke-linejoin:miter;stroke-miterlimit:4;stroke-dasharray:none;stroke-opacity:1"
       d="m 506.70898,442.70898 -21.0957,4.69532 -0.0918,1.50195 -47.55664,12.90039 c -2.42922,7.18611 -3.51791,12.27657 7.58008,11.48633 l 50.76953,-16.79102 10.39453,-13.79297 z"
       id="path4425"
       inkscape:connector-curvature="0"
       transform="scale(0.26458333)" />
    <path
       style="fill:#dad9c9;fill-opacity:1;fill-rule:evenodd;stroke:#000000;stroke-width:0.70555556;stroke-linecap:butt;stroke-linejoin:miter;stroke-miterlimit:4;stroke-dasharray:none;stroke-opacity:1"
       d="m 128.46088,118.77308 -13.06292,3.54339 c -3.19758,-0.0625 -2.95359,-0.69878 -3.4905,-3.59627 l 4.54823,-1.48082 12.11096,-0.21155 z"
       id="path4427"
       inkscape:connector-curvature="0"
       sodipodi:nodetypes="cccccc" />
    <path
       style="fill:#dad9c9;fill-opacity:1;fill-rule:evenodd;stroke:#000000;stroke-width:0.70555556;stroke-linecap:butt;stroke-linejoin:miter;stroke-miterlimit:4;stroke-dasharray:none;stroke-opacity:1"
       d="m 111.53726,116.18165 c 0.0529,0 22.31803,0 22.31803,0 0,0 1.77719,0.76537 2.00968,1.58659 0.20965,0.74053 -0.93507,1.41188 -0.7933,2.16834 0.25081,1.33823 1.45667,2.50631 2.69721,3.06741 0.86736,0.39231 2.85586,0 2.85586,0 l -0.42309,2.43277 c 0,0 -4.40461,0.65818 -6.45214,0 -1.0945,-0.35183 -2.20664,-1.02677 -2.80297,-2.00968 -0.7759,-1.27889 0.99797,-2.40171 -0.63464,-4.44245 l -18.88041,0 c -2.38238,-0.30416 -1.88932,-1.41825 0.10577,-2.80298 z"
       id="path4566"
       inkscape:connector-curvature="0"
       sodipodi:nodetypes="ccaaaccaaccc" />
    <path
       style="fill:#dad9c9;fill-opacity:1;fill-rule:evenodd;stroke:#000000;stroke-width:0.70555556;stroke-linecap:butt;stroke-linejoin:miter;stroke-miterlimit:4;stroke-dasharray:none;stroke-opacity:1"
       d="m 138.98526,121.52317 c -0.005,-1.09447 0.60894,-2.54539 1.66592,-2.82942 1.41345,-0.37982 3.28157,-0.85147 5.47373,-1.03128 0.23572,-0.0193 0.10335,0.53385 0.31732,0.63463 0.21278,0.10022 0.45597,-0.19992 0.68752,-0.15865 1.14083,0.20334 1.8581,1.39807 2.90875,1.9039 0.55684,0.26809 0.0599,1.25563 -0.10577,1.85103 -0.19234,0.69134 -1.65338,1.56916 -1.00484,1.9039 1.25665,0.64861 1.12179,0.89287 1.32216,1.69237 0.0925,0.36914 0.0414,0.88417 -0.26443,1.11061 -0.22714,0.16817 -0.79748,-0.33128 -0.84619,-0.0529 -0.23787,1.35936 0.613,2.37694 0.26444,3.4905 -0.10856,0.34683 -0.33125,0.91791 -0.68753,0.84618 -0.80049,-0.16117 -1.80128,-0.28677 -2.85586,-0.26443 -0.23972,0.005 -0.20115,-0.44797 -0.21154,-0.68752 -0.0228,-0.52552 0.44553,-1.02923 0.33171,-1.54277 -0.30911,-1.3818 -1.81552,-0.90326 -2.50005,-1.36598 -0.31152,-0.22967 -0.24477,-0.81447 -0.58175,-1.00484 -0.87502,-0.49432 -2.28623,0.74544 -3.01452,0.0529 -0.7797,-0.74142 0.19839,-2.19402 -0.10577,-3.22607 -0.14529,-0.493 -0.79117,-0.8082 -0.7933,-1.32216 z"
       id="path4586"
       inkscape:connector-curvature="0"
       sodipodi:nodetypes="assaasassasassaccaaaa" />
    <ellipse
       style="font-variant-ligatures:none;font-variant-position:normal;font-variant-caps:normal;font-variant-numeric:normal;font-variant-alternates:normal;font-feature-settings:normal;opacity:1;fill:#535353;fill-opacity:1;stroke:#000000;stroke-width:0.70975906;stroke-linecap:round;stroke-linejoin:round;stroke-miterlimit:4;stroke-dasharray:none;stroke-dashoffset:0;stroke-opacity:1"
       id="path4588"
       cx="193.34116"
       cy="-10.831647"
       rx="0.8992976"
       ry="1.5979419"
       transform="matrix(0.72556007,0.68815884,-0.56885307,0.82243917,0,0)" />
    <path
       style="fill:#dad9c9;fill-opacity:1;fill-rule:evenodd;stroke:#000000;stroke-width:0.70555556;stroke-linecap:butt;stroke-linejoin:miter;stroke-miterlimit:4;stroke-dasharray:none;stroke-opacity:1"
       d="m 142.21133,122.47513 c 0.42309,0.10577 1.06235,-0.37855 1.70558,-0.27766 0.67431,0.10577 0.99162,-0.88584 1.25605,-1.36182"
       id="path4590"
       inkscape:connector-curvature="0"
       sodipodi:nodetypes="csc" />
    <path
       style="fill:#707070;fill-opacity:1;fill-rule:evenodd;stroke:#000000;stroke-width:2.66666675;stroke-linecap:butt;stroke-linejoin:miter;stroke-miterlimit:4;stroke-dasharray:none;stroke-opacity:1"
       d="m 186.09375,443.50977 -41.37695,41.375 0,60.76562 56.71289,0 a 13.592202,13.592202 0 0 1 12.84765,-9.19531 13.592202,13.592202 0 0 1 12.84375,9.19531 l 76.30469,0 0,69.96094 100.74219,0 0,-43.17774 21.33594,0 0.21679,-42.05273 -122.4375,0 0,-22.86914 c 0,-12.842 -28.67635,-24.98034 -38,0 l -52.77539,0 0,-64.00195 -26.41406,0 z"
       id="path4592"
       inkscape:connector-curvature="0"
       transform="scale(0.26458333)" />
    <path
       style="fill:#958474;fill-opacity:1;fill-rule:evenodd;stroke:#000000;stroke-width:2.66666675;stroke-linecap:butt;stroke-linejoin:miter;stroke-miterlimit:4;stroke-dasharray:none;stroke-opacity:1"
       d="m 227.12109,545.65039 c 0.48992,1.41493 0.74267,2.9011 0.74805,4.39844 -2.3e-4,7.50645 -6.08535,13.59157 -13.5918,13.59179 -0.93266,-0.002 -1.86269,-0.099 -2.77539,-0.29101 l -6.26562,8.50391 10.64062,7.37695 c 4.97561,10.54254 -1.89692,13.0008 -6.79687,14.39258 l -13.99219,-7.9961 -9.99414,22.78711 10.79297,6.39649 c 0,0 -6.62952,9.61295 -7.5957,15.1914 -0.75601,4.36501 1.5996,13.19336 1.5996,13.19336 l 49.57227,23.58594 -9.5957,-13.99219 c 0,0 1.53473,-31.82392 7.99609,-45.97265 3.50152,-7.66742 15.99024,-19.58985 15.99024,-19.58985 l 49.57226,0 0,-7.19531 -33.58008,0 c -14.39226,-9.40188 -9.81926,-24.69127 -5.99804,-34.38086 z"
       id="path4612"
       inkscape:connector-curvature="0"
       sodipodi:nodetypes="ccccccccccacccacccccc"
       transform="scale(0.26458333)" />
    <path
       style="fill:#4d4d4d;fill-rule:evenodd;stroke:#000000;stroke-width:0.70555556;stroke-linecap:butt;stroke-linejoin:miter;stroke-miterlimit:4;stroke-dasharray:none;stroke-opacity:1"
       d="m 61.559683,179.69813 -17.346716,-8.8849 4.75977,-9.83686 2.855862,1.69236 -2.00968,4.01936 0.42309,3.4905 13.115808,6.24059 z"
       id="path4614"
       inkscape:connector-curvature="0"
       sodipodi:nodetypes="cccccccc" />
    <path
       style="fill:#313131;fill-opacity:1;fill-rule:evenodd;stroke:#000000;stroke-width:0.70555556;stroke-linecap:butt;stroke-linejoin:miter;stroke-miterlimit:4;stroke-dasharray:none;stroke-opacity:1"
       d="m 56.761133,177.24034 -1.865129,2.56356 -8.461812,-4.23091 1.316376,-2.94782 z"
       id="path4616"
       inkscape:connector-curvature="0"
       sodipodi:nodetypes="ccccc" />
    <rect
       style="font-variant-ligatures:none;font-variant-position:normal;font-variant-caps:normal;font-variant-numeric:normal;font-variant-alternates:normal;font-feature-settings:normal;opacity:1;fill:#535353;fill-opacity:1;stroke:#000000;stroke-width:0.70555556;stroke-linecap:round;stroke-linejoin:round;stroke-miterlimit:4;stroke-dasharray:none;stroke-dashoffset:0;stroke-opacity:1"
       id="rect4642"
       width="4.5034466"
       height="4.0193605"
       x="51.722828"
       y="119.61926" />
    <rect
       style="font-variant-ligatures:none;font-variant-position:normal;font-variant-caps:normal;font-variant-numeric:normal;font-variant-alternates:normal;font-feature-settings:normal;opacity:1;fill:#313131;fill-opacity:1;stroke:#000000;stroke-width:0.70555556;stroke-linecap:round;stroke-linejoin:round;stroke-miterlimit:4;stroke-dasharray:none;stroke-dashoffset:0;stroke-opacity:1"
       id="rect4644"
       width="2.221179"
       height="12.163855"
       x="36.068474"
       y="130.83116" />
    <rect
       style="font-variant-ligatures:none;font-variant-position:normal;font-variant-caps:normal;font-variant-numeric:normal;font-variant-alternates:normal;font-feature-settings:normal;opacity:1;fill:#535353;fill-opacity:1;stroke:#000000;stroke-width:0.70555556;stroke-linecap:round;stroke-linejoin:round;stroke-miterlimit:4;stroke-dasharray:none;stroke-dashoffset:0;stroke-opacity:1"
       id="rect4646"
       width="7.7214036"
       height="4.5481563"
       x="42.837925"
       y="139.82184" />
    <rect
       style="font-variant-ligatures:none;font-variant-position:normal;font-variant-caps:normal;font-variant-numeric:normal;font-variant-alternates:normal;font-feature-settings:normal;opacity:1;fill:#535353;fill-opacity:1;stroke:#000000;stroke-width:0.70555556;stroke-linecap:round;stroke-linejoin:round;stroke-miterlimit:4;stroke-dasharray:none;stroke-dashoffset:0;stroke-opacity:1"
       id="rect4648"
       width="8.0387211"
       height="4.7597694"
       x="59.655773"
       y="136.8602" />
    <rect
       style="font-variant-ligatures:none;font-variant-position:normal;font-variant-caps:normal;font-variant-numeric:normal;font-variant-alternates:normal;font-feature-settings:normal;opacity:1;fill:#535353;fill-opacity:1;stroke:#000000;stroke-width:0.70555556;stroke-linecap:round;stroke-linejoin:round;stroke-miterlimit:4;stroke-dasharray:none;stroke-dashoffset:0;stroke-opacity:1"
       id="rect4650"
       width="6.1348133"
       height="10.683038"
       x="83.560394"
       y="143.62965" />
    <rect
       style="font-variant-ligatures:none;font-variant-position:normal;font-variant-caps:normal;font-variant-numeric:normal;font-variant-alternates:normal;font-feature-settings:normal;opacity:1;fill:#313131;fill-opacity:1;stroke:#000000;stroke-width:0.70555556;stroke-linecap:round;stroke-linejoin:round;stroke-miterlimit:4;stroke-dasharray:none;stroke-dashoffset:0;stroke-opacity:1"
       id="rect4654"
       width="3.9664745"
       height="2.5385461"
       x="84.353683"
       y="154.31268" />
    <path
       style="fill:none;fill-rule:evenodd;stroke:#000000;stroke-width:0.70555556;stroke-linecap:butt;stroke-linejoin:miter;stroke-miterlimit:4;stroke-dasharray:none;stroke-opacity:1"
       d="m 83.560395,146.3004 6.134815,0"
       id="path4656"
       inkscape:connector-curvature="0" />
    <path
       style="fill:none;fill-rule:evenodd;stroke:#000000;stroke-width:0.70555556;stroke-linecap:butt;stroke-linejoin:miter;stroke-miterlimit:4;stroke-dasharray:none;stroke-opacity:1"
       d="m 83.560395,148.97116 6.134815,0"
       id="path4658"
       inkscape:connector-curvature="0" />
    <path
       style="fill:none;fill-rule:evenodd;stroke:#000000;stroke-width:0.70555556;stroke-linecap:butt;stroke-linejoin:miter;stroke-miterlimit:4;stroke-dasharray:none;stroke-opacity:1"
       d="m 83.560395,151.64193 6.134815,0"
       id="path4660"
       inkscape:connector-curvature="0" />
    <path
       style="font-variant-ligatures:none;font-variant-position:normal;font-variant-caps:normal;font-variant-numeric:normal;font-variant-alternates:normal;font-feature-settings:normal;opacity:1;fill:#313131;fill-opacity:1;stroke:#000000;stroke-width:2.66666675;stroke-linecap:round;stroke-linejoin:round;stroke-miterlimit:4;stroke-dasharray:none;stroke-dashoffset:0;stroke-opacity:1"
       d="m 263.84766,545.65039 c -3.82122,9.68958 -8.39422,24.97898 5.99804,34.38086 l 0,-34.38086 -5.99804,0 z"
       id="rect4662"
       inkscape:connector-curvature="0"
       transform="scale(0.26458333)" />
    <path
       style="fill:#535353;fill-opacity:1;fill-rule:evenodd;stroke:#000000;stroke-width:0.70555556;stroke-linecap:butt;stroke-linejoin:miter;stroke-miterlimit:4;stroke-dasharray:none;stroke-opacity:1"
       d="m 74.728376,144.36999 c -0.42309,2.43284 -1.867324,6.82249 2.274112,9.09661 l -5.605814,1e-5 10e-7,-9.09661 z"
       id="path4664"
       inkscape:connector-curvature="0"
       sodipodi:nodetypes="ccccc" />
    <circle
       style="font-variant-ligatures:none;font-variant-position:normal;font-variant-caps:normal;font-variant-numeric:normal;font-variant-alternates:normal;font-feature-settings:normal;opacity:1;fill:#535353;fill-opacity:1;stroke:#000000;stroke-width:0.70555556;stroke-linecap:round;stroke-linejoin:round;stroke-miterlimit:4;stroke-dasharray:none;stroke-dashoffset:0;stroke-opacity:1"
       id="path4693"
       cx="74.992805"
       cy="136.64867"
       r="2.8558614" />
    <circle
       style="font-variant-ligatures:none;font-variant-position:normal;font-variant-caps:normal;font-variant-numeric:normal;font-variant-alternates:normal;font-feature-settings:normal;opacity:1;fill:#535353;fill-opacity:1;stroke:#000000;stroke-width:0.70555556;stroke-linecap:round;stroke-linejoin:round;stroke-miterlimit:4;stroke-dasharray:none;stroke-dashoffset:0;stroke-opacity:1"
       id="path4695"
       cx="46.698627"
       cy="131.46581"
       r="4.9713144" />
    <path
       style="font-variant-ligatures:none;font-variant-position:normal;font-variant-caps:normal;font-variant-numeric:normal;font-variant-alternates:normal;font-feature-settings:normal;opacity:1;fill:#735f4d;fill-opacity:1;stroke:#000000;stroke-width:2.66666675;stroke-linecap:round;stroke-linejoin:round;stroke-miterlimit:4;stroke-dasharray:none;stroke-dashoffset:0;stroke-opacity:1"
       d="m 229.81836,592.49414 a 7.0670132,7.0670132 0 0 0 -7.06641,7.06641 7.0670132,7.0670132 0 0 0 2.96094,5.74414 l -0.002,0.006 0.0391,0.0234 a 7.0670132,7.0670132 0 0 0 1.04492,0.60547 l 12.07031,6.98828 a 7.0670132,7.0670132 0 0 0 2.74219,1.58789 l 0.006,0.004 0,-0.002 a 7.0670132,7.0670132 0 0 0 2.05664,0.30859 7.0670132,7.0670132 0 0 0 7.06836,-7.06836 7.0670132,7.0670132 0 0 0 -3.47656,-6.07617 l 0.004,-0.008 -12.85937,-7.48438 a 7.0670132,7.0670132 0 0 0 -2.1582,-1.25781 l -0.0352,-0.0195 -0.004,0.006 a 7.0670132,7.0670132 0 0 0 -2.39062,-0.42383 z"
       id="path4699"
       inkscape:connector-curvature="0"
       transform="scale(0.26458333)" />
    <path
       inkscape:connector-curvature="0"
       style="font-variant-ligatures:none;font-variant-position:normal;font-variant-caps:normal;font-variant-numeric:normal;font-variant-alternates:normal;font-feature-settings:normal;opacity:1;fill:#735f4d;fill-opacity:1;stroke:#000000;stroke-width:0.70555556;stroke-linecap:round;stroke-linejoin:round;stroke-miterlimit:4;stroke-dasharray:none;stroke-dashoffset:0;stroke-opacity:1"
       d="m 57.863944,164.60069 a 1.8698139,1.8698139 0 0 0 -1.869654,1.86965 1.8698139,1.8698139 0 0 0 0.783415,1.51981 l -5.29e-4,0.002 0.01035,0.006 a 1.8698139,1.8698139 0 0 0 0.276469,0.16019 l 3.193603,1.84899 a 1.8698139,1.8698139 0 0 0 0.725537,0.42012 l 0.0016,0.001 0,-5.2e-4 a 1.8698139,1.8698139 0 0 0 0.54415,0.0816 1.8698139,1.8698139 0 0 0 1.870171,-1.87017 1.8698139,1.8698139 0 0 0 -0.91984,-1.60765 l 0.0011,-0.002 -3.402375,-1.98024 a 1.8698139,1.8698139 0 0 0 -0.571026,-0.3328 l -0.0093,-0.005 -0.0011,0.002 a 1.8698139,1.8698139 0 0 0 -0.632519,-0.11214 z"
       id="path4699-1" />
    <path
       style="fill:#313131;fill-opacity:1;fill-rule:evenodd;stroke:#000000;stroke-width:2.66666675;stroke-linecap:butt;stroke-linejoin:miter;stroke-miterlimit:4;stroke-dasharray:none;stroke-opacity:1"
       d="m 210.31445,575.375 -9.07031,13.76953 0.002,0.002 7.83399,4.47657 c 4.89995,-1.39178 11.77249,-3.85004 6.79687,-14.39258 l -5.54883,-3.8457 -0.0137,-0.01 z"
       id="path4734"
       inkscape:connector-curvature="0"
       transform="scale(0.26458333)" />
    <rect
       style="font-variant-ligatures:none;font-variant-position:normal;font-variant-caps:normal;font-variant-numeric:normal;font-variant-alternates:normal;font-feature-settings:normal;opacity:1;fill:#958474;fill-opacity:1;stroke:#000000;stroke-width:0.70555556;stroke-linecap:round;stroke-linejoin:round;stroke-miterlimit:4;stroke-dasharray:none;stroke-dashoffset:0;stroke-opacity:1"
       id="rect4752"
       width="28.253956"
       height="6.4500341"
       x="-23.536316"
       y="210.19467"
       transform="rotate(-31.198303)" />
    <path
       style="fill:#535353;fill-opacity:1;fill-rule:evenodd;stroke:#000000;stroke-width:0.70555556;stroke-linecap:butt;stroke-linejoin:miter;stroke-miterlimit:4;stroke-dasharray:none;stroke-opacity:1"
       d="m 105.90626,162.88049 c 0,0 -0.36002,5.47034 0.37396,8.05665 0.81281,2.8641 4.33415,7.80951 4.33415,7.80951 l -19.848085,12.01963 c 0,0 -3.728979,-5.50605 -5.054015,-8.53546 -1.344971,-3.07498 -2.362528,-6.33204 -2.879513,-9.64824 -0.49825,-3.19603 -0.186982,-9.70209 -0.186982,-9.70209 z"
       id="path4754"
       inkscape:connector-curvature="0"
       sodipodi:nodetypes="caccaacc" />
    <path
       style="fill:#535353;fill-opacity:1;fill-rule:evenodd;stroke:#000000;stroke-width:0.70555556;stroke-linecap:butt;stroke-linejoin:miter;stroke-miterlimit:4;stroke-dasharray:none;stroke-opacity:1"
       d="m 94.468338,196.06494 1.116552,1.68533 2.842115,-1.86981 -1.160119,-1.51027 z"
       id="path4771"
       inkscape:connector-curvature="0"
       sodipodi:nodetypes="ccccc" />
    <path
       style="fill:#535353;fill-opacity:1;fill-rule:evenodd;stroke:#000000;stroke-width:0.70555556;stroke-linecap:butt;stroke-linejoin:miter;stroke-miterlimit:4;stroke-dasharray:none;stroke-opacity:1"
       d="m 99.41725,193.06797 1.10395,1.76539 3.66484,-2.31856 -1.07155,-1.68581 z"
       id="path4773"
       inkscape:connector-curvature="0"
       sodipodi:nodetypes="ccccc" />
    <path
       style="fill:#535353;fill-opacity:1;fill-rule:evenodd;stroke:#000000;stroke-width:0.70555556;stroke-linecap:butt;stroke-linejoin:miter;stroke-miterlimit:4;stroke-dasharray:none;stroke-opacity:1"
       d="m 104.97968,189.69946 1.15096,1.76824 3.81442,-2.31857 -0.99299,-1.85527 z"
       id="path4775"
       inkscape:connector-curvature="0" />
    <path
       style="fill:#535353;fill-opacity:1;fill-rule:evenodd;stroke:#000000;stroke-width:0.70555556;stroke-linecap:butt;stroke-linejoin:miter;stroke-miterlimit:4;stroke-dasharray:none;stroke-opacity:1"
       d="m 110.30163,186.47659 0.98969,1.55065 3.0665,-2.0194 -0.85299,-1.47105 z"
       id="path4777"
       inkscape:connector-curvature="0"
       sodipodi:nodetypes="ccccc" />
    <path
       style="fill:#313131;fill-opacity:1;fill-rule:evenodd;stroke:#000000;stroke-width:0.70555556;stroke-linecap:butt;stroke-linejoin:miter;stroke-miterlimit:4;stroke-dasharray:none;stroke-opacity:1"
       d="m 100.06682,162.88049 c 0,0 -0.290187,3.91886 0.22438,5.77548 0.62283,2.24722 3.36566,6.13299 3.36566,6.13299 -0.53141,1.47784 -0.92865,1.35737 -2.39336,1.42106 0,0 -2.892505,-4.18201 -3.59004,-6.58175 -0.629198,-2.16464 -0.448754,-6.74778 -0.448754,-6.74778 z"
       id="path4779"
       inkscape:connector-curvature="0"
       sodipodi:nodetypes="caccacc" />
    <path
       style="fill:#313131;fill-opacity:1;fill-rule:evenodd;stroke:#000000;stroke-width:0.70555556;stroke-linecap:butt;stroke-linejoin:miter;stroke-miterlimit:4;stroke-dasharray:none;stroke-opacity:1"
       d="m 91.04502,162.88049 c 0,0 -0.632122,4.58398 -0.224378,6.82257 0.652941,3.58477 4.188384,10.097 4.188384,10.097 -0.612417,2.22373 -0.780147,1.72591 -2.991705,1.79503 0,0 -3.229413,-6.15466 -4.038796,-9.49865 -0.724603,-2.99372 -0.673134,-9.21594 -0.673134,-9.21594 z"
       id="path4781"
       inkscape:connector-curvature="0"
       sodipodi:nodetypes="caccacc" />
  </g>
</svg>
